<svg width="26" height="9" viewBox="0 0 26 9" fill="none" xmlns="http://www.w3.org/2000/svg">
<path opacity="0.99" fill-rule="evenodd" clip-rule="evenodd" d="M4.29492 8.87758C6.56367 8.87758 7.93242 7.19008 7.93242 4.34242V4.3307C7.93242 1.28383 6.25742 0.00062561 4.33242 0.00062561C2.37617 0.00062561 0.982422 1.25453 0.982422 2.97133V2.98305C0.982422 4.58852 2.19492 5.77211 3.92617 5.77211C5.16367 5.77211 5.95117 5.18031 6.28242 4.51234H6.40742C6.40742 4.54456 6.40586 4.57678 6.4043 4.60899L6.4043 4.60902C6.40274 4.64125 6.40117 4.67348 6.40117 4.7057C6.33242 6.32289 5.72617 7.63539 4.29492 7.63539C3.50117 7.63539 2.94492 7.24867 2.70742 6.65688L2.68867 6.59828H1.10117L1.11367 6.66273C1.40117 7.95766 2.63867 8.87758 4.29492 8.87758ZM4.32617 4.61195C3.30117 4.61195 2.55742 3.90883 2.55742 2.93031V2.91859C2.55742 1.97524 3.35117 1.23109 4.34492 1.23109C5.34492 1.23109 6.12617 1.98695 6.12617 2.95375V2.96547C6.12617 3.92055 5.34492 4.61195 4.32617 4.61195ZM11.5014 2.26234C11.5014 2.77797 11.0827 3.18813 10.5077 3.18813C9.93892 3.18813 9.51392 2.77797 9.51392 2.26234C9.51392 1.74086 9.93892 1.33656 10.5077 1.33656C11.0827 1.33656 11.5014 1.74086 11.5014 2.26234ZM10.5077 7.53578C11.0827 7.53578 11.5014 7.13148 11.5014 6.61C11.5014 6.08852 11.0827 5.68422 10.5077 5.68422C9.93892 5.68422 9.51392 6.08852 9.51392 6.61C9.51392 7.13148 9.93892 7.53578 10.5077 7.53578ZM19.0079 7.04359V8.66664H17.4642V7.04359H13.0517V5.80727C14.2204 3.90297 15.5017 1.95766 16.7267 0.211563H19.0079V5.79555H20.2204V7.04359H19.0079ZM17.4892 5.8307H14.5517V5.74281C15.4267 4.30727 16.4704 2.74281 17.3954 1.41859H17.4892V5.8307ZM25.3144 0.211563V8.66664H23.7019V1.69984H23.5957L21.3519 3.18813V1.7643L23.7082 0.211563H25.3144Z" fill="black"/>
</svg>
