<svg width="16" height="9" viewBox="0 0 16 9" fill="none" xmlns="http://www.w3.org/2000/svg">
<path fill-rule="evenodd" clip-rule="evenodd" d="M14.5332 0.133331H13.6799C13.2086 0.133331 12.8266 0.491502 12.8266 0.93333V7.86666C12.8266 8.30849 13.2086 8.66666 13.6799 8.66666H14.5332C15.0045 8.66666 15.3866 8.30849 15.3866 7.86666V0.93333C15.3866 0.491502 15.0045 0.133331 14.5332 0.133331ZM9.69766 2H10.551C11.0223 2 11.4043 2.35817 11.4043 2.8V7.86666C11.4043 8.30849 11.0223 8.66666 10.551 8.66666H9.69766C9.22637 8.66666 8.84431 8.30849 8.84431 7.86666V2.8C8.84431 2.35817 9.22637 2 9.69766 2ZM6.56877 3.86666H5.71544C5.24416 3.86666 4.86211 4.22484 4.86211 4.66666V7.86666C4.86211 8.30849 5.24416 8.66666 5.71544 8.66666H6.56877C7.04005 8.66666 7.4221 8.30849 7.4221 7.86666V4.66666C7.4221 4.22484 7.04005 3.86666 6.56877 3.86666ZM2.58655 5.46666H1.73322C1.26193 5.46666 0.879883 5.82484 0.879883 6.26666V7.86666C0.879883 8.30849 1.26193 8.66666 1.73322 8.66666H2.58655C3.05783 8.66666 3.43988 8.30849 3.43988 7.86666V6.26666C3.43988 5.82484 3.05783 5.46666 2.58655 5.46666Z" fill="black"/>
</svg>
