<svg width="14" height="10" viewBox="0 0 14 10" fill="none" xmlns="http://www.w3.org/2000/svg">
<path fill-rule="evenodd" clip-rule="evenodd" d="M7.19588 2.69211C9.09432 2.69219 10.9202 3.37548 12.296 4.60075C12.3996 4.69535 12.5653 4.69416 12.6673 4.59808L13.6577 3.66182C13.7093 3.61309 13.7382 3.54708 13.7377 3.4784C13.7373 3.40972 13.7077 3.34403 13.6554 3.29587C10.0442 0.0540864 4.34703 0.0540864 0.735801 3.29587C0.683489 3.344 0.653809 3.40966 0.653326 3.47834C0.652844 3.54702 0.6816 3.61305 0.73323 3.66182L1.7239 4.59808C1.82588 4.6943 1.99161 4.6955 2.09516 4.60075C3.47121 3.3754 5.29726 2.69211 7.19588 2.69211ZM7.19589 5.73818C8.23896 5.73812 9.2448 6.10128 10.018 6.7571C10.1226 6.85018 10.2873 6.84816 10.3892 6.75256L11.3785 5.81629C11.4306 5.76718 11.4595 5.70056 11.4587 5.63133C11.458 5.5621 11.4276 5.49605 11.3745 5.44794C9.02 3.39641 5.37378 3.39641 3.0193 5.44794C2.96611 5.49605 2.93577 5.56214 2.93507 5.63139C2.93437 5.70064 2.96338 5.76725 3.01558 5.81629L4.00454 6.75256C4.10649 6.84816 4.27122 6.85018 4.3758 6.7571C5.14846 6.10172 6.15351 5.73859 7.19589 5.73818ZM9.17753 7.78765C9.17904 7.85707 9.1499 7.924 9.097 7.97264L7.3858 9.59024C7.33564 9.63778 7.26725 9.66453 7.19589 9.66453C7.12453 9.66453 7.05614 9.63778 7.00598 9.59024L5.2945 7.97264C5.24163 7.92397 5.21254 7.85702 5.21411 7.78759C5.21568 7.71817 5.24776 7.65243 5.30278 7.60589C6.39561 6.74008 7.99617 6.74008 9.089 7.60589C9.14398 7.65247 9.17601 7.71823 9.17753 7.78765Z" fill="black"/>
</svg>
